# xmcd CD database file
#
# Track frame offsets:
#	182
#	14037
#	33302
#	48217
#	64612
#	77352
#	94025
#	106825
#	122492
#	132410
#	156775
#	162637
#	173810
#	184310
#	195520
#	207995
#	221875
#	235750
#
# Disc length: 3335 seconds
#
# Revision: 2
# Processed by: cddbd v1.4b41PL1 Copyright (c) Steve Scherf et al.
# Submitted via: Feurio! 1.50.2ß - http://www.feurio.com
#
DISCID=f30d0512
DTITLE=Various Artist - Magie de la flûte des Andes
DYEAR=1900
DGENRE=
TTITLE0=Pérou - El condor pasa
TTITLE1=Colombie - La Colegiala
TTITLE2=Bolivie - Tinku
TTITLE3=Bolivie - Sicuri
TTITLE4=Ecuador - La Naranja
TTITLE5=Ecuador - Péguche
TTITLE6=Perou - Carnaval de Tinta
TTITLE7=Perou - Waraka Tusuy
TTITLE8=Bolivie - Carnaval del Santo
TTITLE9=Bolivie - Llorando se fué (lambada)
TTITLE10=Perou - Q'Arachuncho
TTITLE11=Bolivie - Carnavalito
TTITLE12=Perou - Valicha
TTITLE13=Perou - Flecheros
TTITLE14=Ecuador - Ofrenda
TTITLE15=Ecuador - Avagos
TTITLE16=Perou - Sagra
TTITLE17=Bolivie - Chapi Chapini
EXTD=
EXTT0=
EXTT1=
EXTT2=
EXTT3=
EXTT4=
EXTT5=
EXTT6=
EXTT7=
EXTT8=
EXTT9=
EXTT10=
EXTT11=
EXTT12=
EXTT13=
EXTT14=
EXTT15=
EXTT16=
EXTT17=
PLAYORDER=
